<svg viewBox="0 0 32 32" xml:space="preserve" xmlns="http://www.w3.org/2000/svg" enable-background="new 0 0 32 32"><path d="m2.163 25.953 6.783-10.392c.369-.566 1.306-.566 1.675 0l2.668 4.088 5.459-8.72a1 1 0 0 1 1.696.001l9.405 15.04a.995.995 0 0 1 .146.562c0-.011.006-.02.006-.031v-21a1 1 0 0 0-1-1H3a1 1 0 0 0-1 1v21c0 .015.008.027.008.042a1 1 0 0 1 .155-.59zM9.5 13.804c-1.654 0-3-1.346-3-3s1.346-3 3-3 3 1.346 3 3-1.346 3-3 3z" fill="#141414" class="fill-d2ecfa" data-darkreader-inline-fill="" style="--darkreader-inline-fill:#0b0c0d;"></path><path d="M29.994 26.531a.998.998 0 0 0-.146-.562l-9.405-15.04a1 1 0 0 0-1.696-.001l-5.459 8.72-2.668-4.088c-.369-.566-1.306-.566-1.675 0L2.163 25.953c-.43.64.069 1.556.837 1.547h26c.525-.005.987-.439.994-.969z" fill="#ffffff" class="fill-20ad74" data-darkreader-inline-fill="" style="--darkreader-inline-fill:#161819;"></path><circle cx="9.5" cy="10.804" r="3" fill="#ffffff" class="fill-fbc34e" data-darkreader-inline-fill="" style="--darkreader-inline-fill:#161819;"></circle></svg>